<svg width="28" height="23" viewBox="0 0 28 23" fill="none" xmlns="http://www.w3.org/2000/svg">
<g clip-path="url(#clip0_17_2436)">
<path d="M19.25 2.966C17.22 2.966 15.2716 3.70153 14 4.86385C12.7283 3.70153 10.78 2.966 8.74998 2.966C5.15665 2.966 2.33331 5.16351 2.33331 7.96034C2.33331 11.3928 6.29998 14.1896 12.3083 18.4394L14 19.6289L15.6916 18.4303C21.7 14.1896 25.6666 11.3928 25.6666 7.96034C25.6666 5.16351 22.8433 2.966 19.25 2.966ZM14.1166 17.0864L14 17.1772L13.8833 17.0864C8.32998 13.1726 4.66665 10.5846 4.66665 7.96034C4.66665 6.14422 6.41665 4.78213 8.74998 4.78213C10.5466 4.78213 12.2966 5.68111 12.915 6.92515H15.0966C15.7033 5.68111 17.4533 4.78213 19.25 4.78213C21.5833 4.78213 23.3333 6.14422 23.3333 7.96034C23.3333 10.5846 19.67 13.1726 14.1166 17.0864Z" fill="#3D8FEF"/>
</g>
<defs>
<clipPath id="clip0_17_2436">
<rect width="28" height="21.7935" fill="white" transform="translate(0 0.241821)"/>
</clipPath>
</defs>
</svg>
