<svg width="16" height="16" viewBox="0 0 16 16" fill="none" xmlns="http://www.w3.org/2000/svg">
<path d="M8 4.8C8.88 4.8 9.6 4.08 9.6 3.2C9.6 2.896 9.52 2.616 9.368 2.376L8 0L6.632 2.376C6.48 2.616 6.4 2.896 6.4 3.2C6.4 4.08 7.12 4.8 8 4.8ZM11.68 12.792L10.824 11.936L9.96 12.792C8.92 13.832 7.096 13.84 6.048 12.792L5.192 11.936L4.32 12.792C3.8 13.312 3.104 13.6 2.368 13.6C1.784 13.6 1.248 13.416 0.8 13.112V16.8C0.8 17.24 1.16 17.6 1.6 17.6H14.4C14.84 17.6 15.2 17.24 15.2 16.8V13.112C14.752 13.416 14.216 13.6 13.632 13.6C12.896 13.6 12.2 13.312 11.68 12.792ZM12.8 7.2H8.8V5.6H7.2V7.2H3.2C1.872 7.2 0.8 8.272 0.8 9.6V10.832C0.8 11.696 1.504 12.4 2.368 12.4C2.784 12.4 3.184 12.24 3.472 11.944L5.184 10.24L6.888 11.944C7.48 12.536 8.512 12.536 9.104 11.944L10.816 10.24L12.52 11.944C12.816 12.24 13.208 12.4 13.624 12.4C14.488 12.4 15.192 11.696 15.192 10.832V9.6C15.2 8.272 14.128 7.2 12.8 7.2Z" fill="#3D8FEF"/>
</svg>